<?xml version="1.0" standalone="no"?>
<!DOCTYPE svg PUBLIC "-//W3C//DTD SVG 20010904//EN"
 "http://www.w3.org/TR/2001/REC-SVG-20010904/DTD/svg10.dtd">
<svg version="1.0" xmlns="http://www.w3.org/2000/svg"
 width="130.000000pt" height="130.000000pt" viewBox="0 0 130.000000 130.000000"
 preserveAspectRatio="xMidYMid meet">
<metadata>
Created by potrace 1.11, written by Peter Selinger 2001-2013
</metadata>
<g transform="translate(0.000000,130.000000) scale(0.100000,-0.100000)"
fill="#000000" stroke="none">
<path d="M487 1276 c-3 -8 -3 -23 0 -34 5 -22 -12 -62 -28 -62 -25 0 -111 -88
-134 -138 -28 -59 -33 -136 -11 -167 8 -11 48 -33 90 -50 42 -16 76 -36 76
-42 0 -17 -37 -53 -54 -53 -55 0 -122 -86 -130 -165 -11 -119 86 -211 185
-176 26 9 29 8 20 -3 -9 -11 -108 -39 -147 -41 -6 0 -29 -12 -50 -27 -36 -25
-133 -61 -196 -72 -31 -5 -66 -22 -90 -44 -15 -12 -18 -32 -18 -109 l0 -93
650 0 650 0 0 450 c0 303 -3 450 -10 450 -36 0 -118 -56 -205 -140 -20 -19
-20 -19 -20 39 0 48 -5 64 -29 95 -52 68 -144 84 -209 35 l-28 -20 -42 37
c-52 47 -62 63 -48 77 8 8 11 7 11 -3 0 -7 2 -11 5 -8 7 6 -44 110 -58 120 -6
3 -30 9 -54 13 -29 4 -42 11 -39 18 3 7 9 20 12 30 4 10 13 16 20 13 22 -8 16
14 -12 51 -21 27 -32 33 -63 33 -24 0 -41 -5 -44 -14z m167 -189 c15 -14 15
-18 3 -23 -29 -11 -80 1 -93 21 -13 20 -11 21 29 20 28 0 50 -6 61 -18z m-96
-82 c-1 -5 -18 -10 -36 -11 -18 -1 -45 -5 -59 -9 -24 -6 -25 -5 -12 12 8 10
23 25 34 35 19 16 22 15 48 -1 16 -10 27 -22 25 -26z m109 4 c9 -9 6 -20 -10
-45 -25 -38 -37 -43 -37 -15 0 31 -11 51 -29 52 -9 1 -2 5 14 9 44 11 50 11
62 -1z m88 -89 c29 -30 29 -30 12 -65 -9 -20 -17 -47 -17 -60 0 -21 -5 -25
-29 -25 -47 0 -52 16 -29 103 12 42 24 77 28 77 3 0 19 -13 35 -30z m-89 -39
c-10 -51 -26 -60 -26 -15 0 24 19 64 31 64 3 0 1 -22 -5 -49z m311 23 c37 -24
56 -62 56 -114 1 -135 -166 -203 -233 -95 -23 37 -26 108 -6 143 l13 24 27
-32 c15 -18 25 -39 22 -46 -8 -22 38 -48 62 -35 45 24 26 93 -23 83 -30 -5
-65 21 -65 50 0 10 1 18 3 18 1 0 20 7 42 15 42 15 65 12 102 -11z m-408 -70
c-6 -8 -14 -14 -18 -14 -10 0 -7 61 4 85 8 17 10 15 17 -19 5 -25 4 -43 -3
-52z m51 -77 c0 -10 -5 -15 -10 -12 -6 4 -8 10 -5 15 9 15 -6 39 -21 33 -17
-6 -18 9 -1 26 10 10 14 7 24 -16 7 -15 12 -36 13 -46z m-45 -47 c20 -43 15
-61 -10 -40 -24 20 -36 47 -29 64 10 25 20 19 39 -24z m179 9 c3 -17 23 -49
45 -70 36 -36 57 -44 110 -41 7 0 -4 -18 -25 -41 -22 -23 -39 -43 -40 -44 0
-2 -17 -5 -38 -8 -21 -2 -61 -17 -90 -33 -88 -49 -189 -65 -153 -24 15 18 28
64 33 117 1 17 3 34 3 38 1 5 10 6 20 2 14 -4 25 1 36 19 9 14 14 29 11 34 -7
12 22 52 38 52 8 0 16 7 20 15 9 25 23 17 30 -16z m-318 -41 c-3 -13 -6 -32
-6 -44 0 -12 -9 -31 -19 -43 -21 -25 -16 -62 10 -69 11 -3 11 -1 -1 7 -13 9
-13 11 3 11 9 0 17 -5 17 -12 0 -6 3 -9 6 -5 3 3 17 2 30 -3 29 -11 34 9 8 34
-14 15 -13 16 8 17 13 0 33 2 46 5 18 3 22 -1 22 -21 0 -64 -65 -145 -112
-140 -13 1 -31 3 -40 4 -10 0 -27 11 -39 24 -65 69 -52 186 27 238 38 25 48
24 40 -3z m54 -22 c0 -18 -7 -41 -15 -52 -14 -19 -14 -19 -15 1 0 40 13 94 21
89 5 -3 9 -20 9 -38z"/>
</g>
</svg>
